# xmcd CD database file
#
# Track frame offsets:
#	150
#	12217
#	24612
#	36735
#	49075
#	63242
#	75312
#	89115
#	101010
#	114182
#	126800
#	138285
#	152162
#	163212
#	174710
#	187730
#
# Disc length: 2673 seconds
#
# Revision: 2
# Processed by: cddbd v1.5.2PL0 Copyright (c) Steve Scherf et al.
# Submitted via: CDex 1.70beta2
#
DISCID=d00a6f10
DTITLE=Celia Cruz - Epoca Dorada con la Sonora Matancera Vol 1
DYEAR=1993
DGENRE=Salsa
TTITLE0=Burundanga
TTITLE1=Juancito Trucupey
TTITLE2=Tuya y Mas Que Tuya
TTITLE3=La Sopa En Botella
TTITLE4=Tu Voz
TTITLE5=Caramelo
TTITLE6=Nuevo Ritmo Omelenko
TTITLE7=Contentosa
TTITLE8=El Yerbo Moderno
TTITLE9=Ritmo, Tambo y Flores
TTITLE10=Dile Que Por Mi No Tema
TTITLE11=Pa La Paloma
TTITLE12=El Rock and Roll
TTITLE13=Vallan Vallende
TTITLE14=Melao De Cana
TTITLE15=Pepe Antonio
EXTD=YEAR: 1993
EXTT0=
EXTT1=
EXTT2=
EXTT3=
EXTT4=
EXTT5=
EXTT6=
EXTT7=
EXTT8=
EXTT9=
EXTT10=
EXTT11=
EXTT12=
EXTT13=
EXTT14=
EXTT15=
PLAYORDER=
